<svg width="251" height="119" viewBox="0 0 251 119" fill="none" xmlns="http://www.w3.org/2000/svg">
<g filter="url(#filter0_d_43_30)">
<path d="M21.0457 59.8322L41.142 40.3757L55.0581 53.8487C59.0259 57.6903 59.0259 63.9187 55.0581 67.7603L42.1463 80.261L21.0457 59.8322Z" fill="white"/>
<path d="M8.49987 85.8903C4.53198 82.0487 4.53198 75.8203 8.49988 71.9787L21.4117 59.478L42.5122 79.9068L29.6004 92.4075C25.6325 96.2491 19.1993 96.2491 15.2314 92.4075L8.49987 85.8903Z" fill="white"/>
<path d="M7.18451 46.4123C3.21661 42.5707 3.21662 36.3423 7.18451 32.5007L12.9118 26.9558C16.8797 23.1142 23.3129 23.1142 27.2808 26.9558L41.1968 40.4288L21.1005 59.8853L7.18451 46.4123Z" fill="white"/>
<path d="M73.8401 76.3914C77.8978 80.138 78.0454 86.3648 74.1697 90.2993L70.5163 94.0083C66.6406 97.9428 60.2093 98.0953 56.1515 94.3487L52.7513 91.2092C48.6935 87.4627 48.546 81.2359 52.4217 77.3013L56.0751 73.5924C59.9508 69.6578 66.3821 69.5054 70.4398 73.2519L73.8401 76.3914Z" fill="white"/>
<path d="M139.391 94H136.297L131.328 87.1094C130.109 88.2031 128.812 89.2344 127.438 90.2031C126.094 91.1406 124.672 91.9688 123.172 92.6875C121.672 93.375 120.125 93.9219 118.531 94.3281C116.969 94.7344 115.375 94.9375 113.75 94.9375C110.219 94.9375 106.891 94.2812 103.766 92.9688C100.672 91.625 97.9531 89.7812 95.6094 87.4375C93.2969 85.0625 91.4688 82.2656 90.125 79.0469C88.7812 75.7969 88.1094 72.2656 88.1094 68.4531C88.1094 64.6719 88.7812 61.1562 90.125 57.9062C91.4688 54.6562 93.2969 51.8438 95.6094 49.4688C97.9531 47.0938 100.672 45.2344 103.766 43.8906C106.891 42.5469 110.219 41.875 113.75 41.875C114.875 41.875 116.031 41.9688 117.219 42.1562C118.438 42.3438 119.609 42.6562 120.734 43.0938C121.891 43.5 122.969 44.0469 123.969 44.7344C124.969 45.4219 125.812 46.2656 126.5 47.2656V23.8281H139.391V94ZM126.5 68.4531C126.5 66.7031 126.156 65.0156 125.469 63.3906C124.812 61.7344 123.906 60.2812 122.75 59.0312C121.594 57.75 120.234 56.7344 118.672 55.9844C117.141 55.2031 115.5 54.8125 113.75 54.8125C112 54.8125 110.344 55.125 108.781 55.75C107.25 56.375 105.906 57.2812 104.75 58.4688C103.625 59.625 102.734 61.0469 102.078 62.7344C101.422 64.4219 101.094 66.3281 101.094 68.4531C101.094 70.2969 101.422 72.0469 102.078 73.7031C102.734 75.3594 103.625 76.8125 104.75 78.0625C105.906 79.3125 107.25 80.2969 108.781 81.0156C110.344 81.7344 112 82.0938 113.75 82.0938C115.5 82.0938 117.141 81.7188 118.672 80.9688C120.234 80.1875 121.594 79.1719 122.75 77.9219C123.906 76.6406 124.812 75.1875 125.469 73.5625C126.156 71.9062 126.5 70.2031 126.5 68.4531ZM169.156 81.7188C169.656 81.875 170.156 81.9844 170.656 82.0469C171.156 82.0781 171.656 82.0938 172.156 82.0938C173.406 82.0938 174.609 81.9219 175.766 81.5781C176.922 81.2344 178 80.75 179 80.125C180.031 79.4688 180.938 78.6875 181.719 77.7812C182.531 76.8438 183.188 75.8125 183.688 74.6875L193.062 84.1094C191.875 85.7969 190.5 87.3125 188.938 88.6562C187.406 90 185.734 91.1406 183.922 92.0781C182.141 93.0156 180.25 93.7188 178.25 94.1875C176.281 94.6875 174.25 94.9375 172.156 94.9375C168.625 94.9375 165.297 94.2812 162.172 92.9688C159.078 91.6562 156.359 89.8281 154.016 87.4844C151.703 85.1406 149.875 82.3594 148.531 79.1406C147.188 75.8906 146.516 72.3281 146.516 68.4531C146.516 64.4844 147.188 60.8594 148.531 57.5781C149.875 54.2969 151.703 51.5 154.016 49.1875C156.359 46.875 159.078 45.0781 162.172 43.7969C165.297 42.5156 168.625 41.875 172.156 41.875C174.25 41.875 176.297 42.125 178.297 42.625C180.297 43.125 182.188 43.8438 183.969 44.7812C185.781 45.7188 187.469 46.875 189.031 48.25C190.594 49.5938 191.969 51.1094 193.156 52.7969L169.156 81.7188ZM175.719 55.3281C175.125 55.1094 174.531 54.9688 173.938 54.9062C173.375 54.8438 172.781 54.8125 172.156 54.8125C170.406 54.8125 168.75 55.1406 167.188 55.7969C165.656 56.4219 164.312 57.3281 163.156 58.5156C162.031 59.7031 161.141 61.1406 160.484 62.8281C159.828 64.4844 159.5 66.3594 159.5 68.4531C159.5 68.9219 159.516 69.4531 159.547 70.0469C159.609 70.6406 159.688 71.25 159.781 71.875C159.906 72.4688 160.047 73.0469 160.203 73.6094C160.359 74.1719 160.562 74.6719 160.812 75.1094L175.719 55.3281ZM213.219 94L194.094 43.7969H208.672L219.641 75.1094L230.562 43.7969H245.188L226.062 94H213.219Z" fill="white"/>
</g>
<defs>
<filter id="filter0_d_43_30" x="0.208557" y="23.8281" width="248.979" height="84.1719" filterUnits="userSpaceOnUse" color-interpolation-filters="sRGB">
<feFlood flood-opacity="0" result="BackgroundImageFix"/>
<feColorMatrix in="SourceAlpha" type="matrix" values="0 0 0 0 0 0 0 0 0 0 0 0 0 0 0 0 0 0 127 0" result="hardAlpha"/>
<feOffset dy="4"/>
<feGaussianBlur stdDeviation="2"/>
<feComposite in2="hardAlpha" operator="out"/>
<feColorMatrix type="matrix" values="0 0 0 0 0 0 0 0 0 0 0 0 0 0 0 0 0 0 0.25 0"/>
<feBlend mode="normal" in2="BackgroundImageFix" result="effect1_dropShadow_43_30"/>
<feBlend mode="normal" in="SourceGraphic" in2="effect1_dropShadow_43_30" result="shape"/>
</filter>
</defs>
</svg>
