<svg width="438" height="434" viewBox="0 0 438 434" fill="none" xmlns="http://www.w3.org/2000/svg">
<path d="M188.092 211.664L228.284 172.751L263.301 206.653C267.269 210.495 267.269 216.723 263.301 220.565L230.293 252.522L188.092 211.664Z" fill="#FBF2F2"/>
<path d="M155.815 256.825C151.847 252.983 151.847 246.755 155.815 242.913L188.823 210.956L231.024 251.814L198.016 283.771C194.048 287.612 187.615 287.612 183.647 283.771L155.815 256.825Z" fill="#FBF2F2"/>
<path d="M153.185 177.869C149.217 174.027 149.217 167.799 153.185 163.957L179.008 138.956C182.976 135.114 189.409 135.114 193.377 138.956L228.394 172.857L188.201 211.77L153.185 177.869Z" fill="#FBF2F2"/>
<path d="M301.027 251.567C305.085 255.313 305.233 261.54 301.357 265.474L280.015 287.141C276.139 291.075 269.708 291.228 265.65 287.481L244.155 267.635C240.098 263.888 239.95 257.661 243.826 253.727L265.168 232.061C269.043 228.126 275.475 227.974 279.532 231.72L301.027 251.567Z" fill="#FBF2F2"/>
<path d="M171.536 18.5687L179.811 16.4953L187.945 48.9605L185.945 49.4617L182.252 46.2956C181.222 47.8423 179.939 49.1516 178.404 50.2236C176.873 51.3158 175.199 52.0898 173.38 52.5455L166.075 54.3759L164.009 46.1308L171.314 44.3004C172.183 44.0826 172.961 43.7159 173.648 43.2002C174.335 42.6844 174.89 42.0727 175.314 41.3651C175.739 40.6575 176.016 39.8792 176.147 39.0303C176.278 38.1813 176.234 37.3224 176.017 36.4534L171.536 18.5687Z" fill="white"/>
<path d="M125.402 54.5036C124.341 52.24 123.756 49.9372 123.648 47.5952C123.548 45.272 123.86 43.0664 124.584 40.9784C125.316 38.9092 126.431 37.0175 127.928 35.3031C129.415 33.6165 131.234 32.2691 133.385 31.2609C135.516 30.2616 137.715 29.7253 139.982 29.652C142.238 29.6065 144.406 29.9595 146.484 30.7109C148.552 31.4901 150.447 32.661 152.169 34.2236C153.9 35.8051 155.296 37.7276 156.357 39.9912C157.436 42.2925 158.029 44.6142 158.138 46.9562C158.247 49.2983 157.935 51.5039 157.202 53.573C156.46 55.6699 155.345 57.5617 153.857 59.2483C152.351 60.9438 150.533 62.2912 148.401 63.2905C146.251 64.2987 144.06 64.8538 141.83 64.956C139.59 65.0858 137.441 64.7706 135.382 64.0103C133.331 63.2688 131.436 62.0979 129.697 60.4976C127.966 58.9161 126.534 56.9181 125.402 54.5036ZM133.183 50.8556C133.767 52.1006 134.501 53.1257 135.384 53.9308C136.258 54.7637 137.212 55.375 138.246 55.7646C139.289 56.173 140.37 56.3448 141.49 56.2799C142.6 56.2426 143.683 55.9764 144.74 55.4812C145.796 54.9859 146.703 54.3192 147.46 53.4808C148.208 52.6702 148.758 51.7335 149.111 50.6706C149.454 49.6355 149.585 48.5157 149.504 47.3114C149.431 46.1259 149.103 44.9107 148.519 43.6657C147.971 42.4962 147.264 41.5045 146.399 40.6904C145.535 39.8764 144.59 39.2607 143.566 38.8434C142.523 38.435 141.438 38.2305 140.31 38.23C139.173 38.2572 138.076 38.5184 137.019 39.0137C135.963 39.5089 135.066 40.1712 134.327 41.0007C133.57 41.839 133.01 42.7802 132.648 43.8242C132.286 44.8682 132.146 45.9924 132.227 47.1967C132.29 48.4099 132.609 49.6295 133.183 50.8556Z" fill="white"/>
<path d="M100.657 84.7816L101.837 75.9996C102.615 76.5076 103.427 76.8716 104.274 77.0917C105.134 77.3284 105.983 77.4297 106.82 77.3957C107.641 77.3742 108.442 77.2238 109.224 76.9442C110.005 76.6647 110.728 76.273 111.392 75.7691C112.321 75.0637 113.056 74.2052 113.596 73.1938C114.119 72.1949 114.423 71.1139 114.508 69.9509C114.589 68.8171 114.445 67.645 114.075 66.4346C113.706 65.2242 113.086 64.0466 112.217 62.9016C111.512 61.9723 110.676 61.2334 109.711 60.6849C108.745 60.1363 107.73 59.7818 106.667 59.6213C105.587 59.4734 104.508 59.5338 103.43 59.8026C102.336 60.0839 101.324 60.5773 100.395 61.2827C99.7314 61.7866 99.1618 62.3628 98.6864 63.0114C98.211 63.66 97.8337 64.3518 97.5546 65.0868C97.2716 65.8509 97.1053 66.6311 97.0557 67.4272C97.0022 68.2525 97.0694 69.0647 97.2574 69.8636L88.4814 68.6395C88.4317 67.2648 88.5509 65.9058 88.839 64.5624C89.1104 63.2316 89.5384 61.952 90.1229 60.7236C90.6909 59.5078 91.4114 58.3723 92.2844 57.3173C93.1283 56.2582 94.1061 55.3066 95.2179 54.4627C97.093 53.0393 99.1248 52.0462 101.313 51.4835C103.498 50.9499 105.678 50.8248 107.855 51.108C110.015 51.4038 112.075 52.1022 114.036 53.2034C115.997 54.3045 117.689 55.7926 119.112 57.6677C120.661 59.7087 121.753 61.8879 122.387 64.205C123.022 66.5222 123.222 68.8024 122.99 71.0454C122.753 73.3177 122.103 75.459 121.039 77.4693C119.96 79.4923 118.482 81.2155 116.607 82.6389C115.495 83.4829 114.301 84.1669 113.025 84.691C111.732 85.2277 110.397 85.5875 109.019 85.7706C107.637 85.9827 106.243 86.0075 104.838 85.8448C103.416 85.6948 102.022 85.3403 100.657 84.7816Z" fill="white"/>
<path d="M70.5434 77.7649L76.199 71.2945L111.422 102.081L105.766 108.552L83.5549 89.1378L87.3256 109.326L80.868 116.714L77.6749 99.189L55.7155 94.7293L62.1731 87.3412L75.7887 90.2355L73.7669 80.5825L70.5434 77.7649Z" fill="white"/>
<path d="M40.8338 119.491L50.4401 102.521L57.8371 106.709L48.2308 123.678C47.9434 124.186 47.8784 124.724 48.0358 125.292C48.1931 125.859 48.5256 126.287 49.0332 126.574C49.559 126.872 50.0061 126.886 50.3745 126.616C50.743 126.345 51.0709 125.956 51.3582 125.449L55.7303 117.725C56.459 116.438 57.3863 115.371 58.5121 114.524C59.6379 113.677 60.8538 113.073 62.1599 112.711C63.4841 112.359 64.8468 112.257 66.248 112.404C67.6389 112.569 68.978 113.015 70.2652 113.744C71.5524 114.473 72.6246 115.391 73.4819 116.499C74.3288 117.624 74.9332 118.84 75.2951 120.146C75.657 121.453 75.7554 122.801 75.5905 124.192C75.4437 125.593 75.006 126.937 74.2773 128.225L65.764 143.263L58.367 139.076L66.8803 124.037C67.1676 123.53 67.2326 122.992 67.0753 122.424C66.918 121.856 66.5855 121.428 66.0778 121.141C65.5521 120.843 64.9962 120.768 64.4102 120.915C63.8423 121.073 63.4147 121.405 63.1273 121.913L58.7553 129.636C58.0368 130.905 57.1419 131.979 56.0705 132.856C55.0172 133.744 53.8737 134.39 52.6402 134.793C51.4066 135.196 50.1165 135.339 48.7697 135.223C47.4229 135.107 46.115 134.69 44.8459 133.971C43.5586 133.243 42.4916 132.316 41.6446 131.19C40.8158 130.074 40.2114 128.858 39.8314 127.542C39.4695 126.236 39.3619 124.882 39.5087 123.481C39.6737 122.09 40.1154 120.76 40.8338 119.491Z" fill="white"/>
<path d="M28.3754 147.622L31.0127 139.442L75.5366 153.799L72.8993 161.978L44.8228 152.925L56.2665 169.978L53.2551 179.317L43.3947 164.482L21.4609 169.066L24.4722 159.727L38.1229 157.003L32.4501 148.935L28.3754 147.622Z" fill="white"/>
<path d="M26.2676 193.549C26.1278 193.869 26.0192 194.192 25.9416 194.519C25.8847 194.848 25.8382 195.179 25.802 195.51C25.7116 196.338 25.7384 197.148 25.8826 197.939C26.0268 198.731 26.2698 199.48 26.6117 200.188C26.972 200.919 27.4242 201.576 27.9682 202.159C28.5308 202.766 29.1667 203.275 29.8761 203.688L22.9537 209.219C21.9213 208.31 21.0163 207.289 20.2388 206.157C19.4591 205.045 18.8241 203.854 18.3339 202.585C17.8414 201.337 17.5122 200.033 17.3463 198.674C17.1573 197.333 17.1386 195.968 17.2901 194.581C17.5455 192.241 18.2212 190.082 19.3171 188.106C20.4108 186.151 21.819 184.481 23.5419 183.098C25.2624 181.735 27.2379 180.724 29.4683 180.067C31.7193 179.411 34.1289 179.224 36.697 179.504C39.3272 179.791 41.681 180.499 43.7584 181.627C45.8357 182.755 47.5571 184.168 48.9223 185.868C50.2853 187.589 51.2795 189.521 51.9048 191.664C52.5278 193.827 52.7116 196.079 52.4562 198.42C52.3047 199.807 51.9909 201.146 51.5149 202.435C51.0388 203.724 50.4257 204.925 49.6755 206.038C48.9231 207.171 48.0348 208.206 47.0105 209.142C46.0069 210.08 44.903 210.882 43.6987 211.547L26.2676 193.549ZM43.2827 199.807C43.4706 199.43 43.6067 199.046 43.6911 198.657C43.7732 198.289 43.8369 197.898 43.8821 197.484C44.0087 196.324 43.9111 195.203 43.5892 194.12C43.2858 193.059 42.7824 192.103 42.079 191.251C41.3734 190.42 40.4852 189.725 39.4143 189.168C38.3641 188.614 37.1453 188.261 35.7577 188.109C35.447 188.075 35.0938 188.047 34.698 188.025C34.3 188.023 33.8905 188.031 33.4695 188.048C33.067 188.088 32.6737 188.139 32.2896 188.202C31.9055 188.265 31.5594 188.363 31.2514 188.497L43.2827 199.807Z" fill="white"/>
<path d="M32.6434 252.515C30.6342 252.731 28.7312 252.475 26.9345 251.747C25.1379 251.018 23.5322 249.924 22.1176 248.463C20.7259 247.02 19.5744 245.279 18.6633 243.24C17.7314 241.203 17.136 238.983 16.8772 236.58C16.6183 234.178 16.7272 231.882 17.2039 229.693C17.6598 227.507 18.4129 225.55 19.4632 223.824C20.5364 222.116 21.8731 220.714 23.4735 219.62C25.0738 218.526 26.8785 217.87 28.8877 217.654C30.0477 217.529 31.1933 217.563 32.3246 217.755C33.4766 217.945 34.5706 218.278 35.6066 218.753C36.6449 219.249 37.6125 219.867 38.5096 220.609C39.4274 221.348 40.2321 222.204 40.9237 223.178C41.4137 222.475 41.9934 221.826 42.6626 221.23C43.334 220.655 44.0535 220.137 44.8212 219.678C45.5911 219.238 46.3906 218.88 47.2198 218.602C48.0696 218.322 48.9192 218.136 49.7685 218.044C51.5084 217.857 53.1757 218.065 54.7703 218.669C56.3879 219.291 57.8389 220.213 59.1232 221.437C60.4282 222.658 61.5092 224.134 62.3661 225.865C63.2231 227.596 63.7609 229.476 63.9796 231.506C64.2005 233.557 64.0767 235.519 63.608 237.392C63.1393 239.266 62.3975 240.938 61.3826 242.409C60.3906 243.899 59.1695 245.11 57.7193 246.041C56.292 246.991 54.7084 247.56 52.9685 247.748C52.1192 247.839 51.2484 247.828 50.3562 247.715C49.4868 247.62 48.6189 247.441 47.7525 247.178C46.9067 246.913 46.0934 246.561 45.3127 246.121C44.5341 245.702 43.8203 245.202 43.1711 244.623C42.7005 245.7 42.1059 246.697 41.3874 247.612C40.6688 248.528 39.854 249.328 38.9429 250.013C38.0319 250.698 37.0442 251.255 35.9798 251.684C34.9155 252.113 33.8033 252.39 32.6434 252.515ZM51.0647 239.121C51.7897 239.043 52.445 238.804 53.0307 238.406C53.6394 238.026 54.1518 237.531 54.5679 236.92C54.9863 236.33 55.29 235.648 55.4789 234.873C55.6679 234.099 55.7177 233.297 55.6284 232.469C55.5369 231.619 55.3164 230.836 54.9668 230.12C54.6172 229.403 54.174 228.791 53.6374 228.283C53.1029 227.796 52.4968 227.421 51.819 227.159C51.1641 226.915 50.4742 226.832 49.7492 226.91C49.0243 226.988 48.3678 227.216 47.7799 227.594C47.1942 227.992 46.7025 228.485 46.3048 229.073C45.9094 229.681 45.6172 230.373 45.4282 231.147C45.2393 231.922 45.1906 232.734 45.2821 233.583C45.3713 234.412 45.5907 235.184 45.9404 235.901C46.29 236.618 46.7216 237.221 47.2353 237.71C47.7513 238.22 48.3367 238.597 48.9916 238.841C49.6487 239.106 50.3397 239.199 51.0647 239.121ZM31.938 243.633C32.9322 243.526 33.8294 243.199 34.6296 242.651C35.4527 242.123 36.1429 241.43 36.7002 240.574C37.2598 239.738 37.6691 238.772 37.9281 237.676C38.1894 236.6 38.2564 235.472 38.1292 234.291C38.002 233.11 37.6962 232.022 37.2118 231.027C36.7274 230.031 36.1217 229.174 35.3948 228.456C34.6701 227.759 33.8482 227.23 32.9292 226.868C32.0331 226.524 31.0879 226.406 30.0936 226.513C29.0994 226.62 28.2114 226.936 27.4297 227.46C26.6503 228.005 26.0015 228.693 25.4834 229.524C24.9675 230.376 24.5893 231.339 24.3487 232.412C24.1289 233.484 24.0826 234.61 24.2098 235.791C24.337 236.971 24.622 238.061 25.065 239.061C25.531 240.08 26.1056 240.94 26.7888 241.642C27.4743 242.364 28.2548 242.898 29.1302 243.244C30.0078 243.61 30.9437 243.74 31.938 243.633Z" fill="white"/>
<path d="M34.9863 276.23C34.9935 276.579 35.0303 276.918 35.0967 277.247C35.1829 277.57 35.2789 277.89 35.3848 278.206C35.6496 278.996 36.0131 279.72 36.4754 280.378C36.9376 281.036 37.4722 281.615 38.0791 282.115C38.7124 282.627 39.3982 283.035 40.1366 283.337C40.9013 283.652 41.6922 283.848 42.5092 283.926L38.5395 291.848C37.2213 291.455 35.972 290.906 34.7915 290.203C33.6178 289.52 32.5426 288.705 31.566 287.758C30.5961 286.831 29.7511 285.784 29.0311 284.619C28.298 283.481 27.7097 282.25 27.2661 280.926C26.5181 278.694 26.2278 276.452 26.3955 274.198C26.5698 271.964 27.1494 269.859 28.1344 267.881C29.126 265.922 30.4968 264.178 32.2468 262.646C34.0165 261.108 36.1261 259.929 38.5755 259.108C41.0842 258.267 43.518 257.924 45.8767 258.078C48.2355 258.233 50.3907 258.796 52.3424 259.768C54.3006 260.759 56.0124 262.097 57.4777 263.781C58.9496 265.485 60.0596 267.453 60.8077 269.686C61.2512 271.009 61.5268 272.356 61.6344 273.726C61.742 275.096 61.6882 276.444 61.4729 277.768C61.2643 279.112 60.8909 280.424 60.3527 281.703C59.8343 282.975 59.1676 284.166 58.3525 285.274L34.9863 276.23ZM53.0584 274.787C53.0709 274.366 53.034 273.961 52.9478 273.572C52.8681 273.203 52.7621 272.821 52.6297 272.426C52.259 271.32 51.7007 270.343 50.9549 269.494C50.2354 268.658 49.3779 268.001 48.3823 267.522C47.3934 267.062 46.296 266.804 45.0903 266.746C43.9043 266.682 42.6496 266.872 41.3261 267.316C41.0298 267.415 40.6973 267.537 40.3286 267.683C39.9666 267.848 39.5979 268.027 39.2227 268.218C38.8739 268.423 38.5382 268.635 38.2158 268.853C37.8933 269.07 37.6203 269.305 37.3967 269.555L53.0584 274.787Z" fill="white"/>
<path d="M41.3778 311.474L37.2429 304.012L66.518 287.791L67.5177 289.595L65.4093 293.979C67.1691 294.575 68.7647 295.478 70.196 296.685C71.6455 297.883 72.8246 299.302 73.7334 300.942L77.3835 307.529L69.9486 311.649L66.2984 305.061C65.8642 304.278 65.3095 303.62 64.6343 303.09C63.959 302.559 63.2249 302.179 62.4319 301.952C61.639 301.724 60.8155 301.657 59.9614 301.749C59.1074 301.841 58.2886 302.104 57.505 302.538L41.3778 311.474Z" fill="white"/>
<path d="M63.1768 338.788C62.5774 339.238 61.9299 339.556 61.2343 339.74C60.5554 339.912 59.8805 339.95 59.2095 339.855C58.5385 339.761 57.9007 339.536 57.2961 339.183C56.6748 338.842 56.1387 338.372 55.6879 337.773C55.2496 337.19 54.9466 336.545 54.779 335.837C54.6072 335.158 54.5625 334.474 54.6449 333.787C54.7399 333.116 54.9577 332.47 55.2985 331.848C55.6685 331.231 56.1532 330.697 56.7526 330.246C57.3353 329.808 57.9662 329.503 58.6451 329.331C59.3365 329.176 60.0178 329.146 60.6887 329.241C61.3722 329.352 62.0163 329.585 62.6209 329.938C63.2547 330.296 63.7908 330.766 64.2291 331.349C64.6799 331.948 64.9829 332.593 65.138 333.285C65.3098 333.964 65.3482 334.639 65.2533 335.31C65.1584 335.981 64.9342 336.618 64.5809 337.223C64.2276 337.828 63.7595 338.349 63.1768 338.788Z" fill="white"/>
<path d="M92.0258 373.09L90.5254 371.675L91.2676 366.061C90.1762 366.033 89.0756 365.94 87.9656 365.781C86.8851 365.621 85.8167 365.372 84.7604 365.035C83.7185 364.682 82.7181 364.24 81.7594 363.708C80.8157 363.19 79.9499 362.56 79.1618 361.816C77.4492 360.201 76.1353 358.36 75.2202 356.294C74.3344 354.227 73.8593 352.09 73.7947 349.881C73.7596 347.671 74.1524 345.479 74.973 343.303C75.808 341.112 77.0974 339.092 78.8414 337.243C80.571 335.409 82.505 334.012 84.6433 333.05C86.7817 332.089 88.9548 331.561 91.1627 331.467C93.3857 331.387 95.5548 331.729 97.6699 332.493C99.8001 333.27 101.722 334.467 103.434 336.082C103.98 336.597 104.498 337.171 104.988 337.805C105.493 338.454 105.918 339.141 106.264 339.868C106.639 340.594 106.912 341.352 107.082 342.143C107.252 342.934 107.276 343.729 107.152 344.529L117.873 333.162L124.124 339.059L92.0258 373.09ZM97.46 354.804C98.2605 353.955 98.8657 352.98 99.2756 351.877C99.7149 350.774 99.9401 349.654 99.9511 348.519C99.9765 347.369 99.7818 346.255 99.3671 345.176C98.9818 344.097 98.3648 343.157 97.5161 342.357C96.6674 341.556 95.7212 340.95 94.6775 340.538C93.649 340.141 92.5828 339.966 91.4788 340.013C90.4043 340.059 89.322 340.341 88.2318 340.859C87.1416 341.378 86.1105 342.152 85.1385 343.183C84.2951 344.077 83.6537 345.076 83.2144 346.179C82.7751 347.282 82.5423 348.395 82.5161 349.515C82.5051 350.651 82.7065 351.743 83.1203 352.792C83.5493 353.855 84.1882 354.787 85.0369 355.587C85.8856 356.388 86.8528 356.956 87.9385 357.293C89.0537 357.629 90.1775 357.758 91.31 357.681C92.4569 357.588 93.5611 357.298 94.6227 356.81C95.7137 356.322 96.6595 355.653 97.46 354.804Z" fill="white"/>
<path d="M118.468 380.852C118.699 381.113 118.947 381.348 119.211 381.556C119.486 381.746 119.766 381.927 120.051 382.099C120.765 382.529 121.511 382.845 122.289 383.047C123.068 383.249 123.85 383.344 124.636 383.331C125.45 383.312 126.237 383.178 126.995 382.929C127.781 382.674 128.511 382.311 129.184 381.841L131.292 390.447C130.033 391.002 128.726 391.394 127.372 391.623C126.035 391.863 124.688 391.938 123.33 391.849C121.991 391.771 120.669 391.522 119.366 391.101C118.07 390.708 116.824 390.152 115.629 389.431C113.613 388.215 111.939 386.695 110.607 384.869C109.293 383.055 108.37 381.075 107.839 378.93C107.326 376.796 107.24 374.579 107.581 372.279C107.933 369.961 108.776 367.696 110.11 365.484C111.476 363.218 113.108 361.38 115.005 359.969C116.902 358.559 118.908 357.591 121.024 357.067C123.159 356.554 125.329 356.464 127.537 356.798C129.762 357.143 131.882 357.923 133.898 359.139C135.094 359.86 136.176 360.707 137.146 361.681C138.115 362.655 138.947 363.716 139.641 364.865C140.353 366.024 140.918 367.265 141.337 368.588C141.766 369.893 142.029 371.232 142.126 372.604L118.468 380.852ZM131.3 368.045C131.036 367.716 130.746 367.431 130.428 367.191C130.129 366.962 129.801 366.74 129.444 366.524C128.445 365.922 127.386 365.539 126.268 365.376C125.179 365.205 124.1 365.26 123.031 365.54C121.98 365.83 120.977 366.344 120.021 367.082C119.076 367.801 118.243 368.759 117.522 369.954C117.361 370.222 117.187 370.53 117 370.88C116.832 371.241 116.666 371.615 116.505 372.004C116.372 372.386 116.253 372.765 116.148 373.14C116.044 373.515 115.988 373.87 115.98 374.206L131.3 368.045Z" fill="white"/>
<path d="M147.205 404.009L146.329 368.204L155.493 371.441L155.436 393.56L169.253 376.301L178.447 379.548L155.279 406.86L147.205 404.009Z" fill="white"/>
<path d="M280.724 407.474L272.623 410.149L262.129 378.368L264.087 377.721L268.002 380.608C268.916 378.99 270.099 377.59 271.552 376.408C272.998 375.207 274.612 374.312 276.392 373.724L283.543 371.362L286.209 379.434L279.057 381.795C278.207 382.076 277.458 382.499 276.81 383.064C276.163 383.628 275.654 384.279 275.283 385.016C274.912 385.753 274.692 386.549 274.624 387.406C274.556 388.262 274.662 389.115 274.943 389.966L280.724 407.474Z" fill="white"/>
<path d="M324.097 368.251C325.321 370.431 326.073 372.685 326.354 375.013C326.624 377.322 326.474 379.545 325.906 381.68C325.327 383.798 324.354 385.766 322.986 387.586C321.627 389.377 319.912 390.854 317.841 392.017C315.789 393.17 313.635 393.866 311.38 394.106C309.133 394.317 306.945 394.124 304.818 393.527C302.698 392.901 300.722 391.873 298.89 390.44C297.048 388.99 295.515 387.175 294.29 384.996C293.046 382.78 292.283 380.508 292.003 378.18C291.723 375.852 291.872 373.63 292.451 371.512C293.038 369.367 294.011 367.398 295.37 365.607C296.748 363.806 298.463 362.328 300.515 361.175C302.586 360.012 304.73 359.298 306.946 359.032C309.171 358.739 311.338 358.895 313.447 359.503C315.546 360.092 317.522 361.12 319.374 362.589C321.216 364.039 322.791 365.927 324.097 368.251ZM316.604 372.46C315.931 371.262 315.124 370.293 314.183 369.555C313.251 368.788 312.255 368.249 311.195 367.936C310.125 367.605 309.034 367.513 307.922 367.66C306.818 367.779 305.757 368.124 304.74 368.695C303.722 369.267 302.867 369.998 302.173 370.89C301.487 371.753 301.007 372.728 300.733 373.813C300.467 374.871 300.419 375.997 300.588 377.192C300.747 378.369 301.164 379.557 301.837 380.756C302.47 381.882 303.247 382.819 304.17 383.568C305.092 384.316 306.079 384.861 307.131 385.202C308.201 385.533 309.298 385.657 310.423 385.575C311.555 385.464 312.63 385.123 313.647 384.552C314.665 383.981 315.511 383.254 316.187 382.373C316.881 381.481 317.37 380.501 317.654 379.434C317.938 378.366 317.996 377.234 317.826 376.039C317.675 374.834 317.267 373.641 316.604 372.46Z" fill="white"/>
<path d="M346.555 336.24L346.022 345.085C345.209 344.635 344.372 344.332 343.511 344.174C342.636 344.001 341.782 343.962 340.95 344.058C340.133 344.139 339.345 344.348 338.585 344.684C337.826 345.021 337.134 345.464 336.509 346.015C335.634 346.787 334.965 347.697 334.5 348.745C334.052 349.78 333.828 350.88 333.828 352.047C333.831 353.183 334.061 354.342 334.518 355.522C334.975 356.702 335.679 357.831 336.63 358.909C337.402 359.784 338.289 360.459 339.293 360.936C340.296 361.412 341.334 361.691 342.406 361.773C343.494 361.841 344.566 361.702 345.621 361.355C346.691 360.994 347.664 360.428 348.539 359.656C349.164 359.105 349.69 358.488 350.117 357.807C350.543 357.125 350.869 356.407 351.093 355.654C351.319 354.871 351.428 354.081 351.419 353.283C351.412 352.456 351.285 351.651 351.039 350.868L359.881 351.445C360.032 352.812 360.012 354.176 359.824 355.537C359.651 356.884 359.318 358.192 358.825 359.46C358.348 360.714 357.712 361.899 356.919 363.016C356.155 364.134 355.25 365.155 354.203 366.078C352.437 367.635 350.484 368.774 348.343 369.496C346.203 370.189 344.038 370.473 341.846 370.351C339.67 370.214 337.564 369.669 335.528 368.714C333.492 367.76 331.695 366.4 330.138 364.634C328.443 362.712 327.194 360.619 326.392 358.355C325.589 356.091 325.222 353.831 325.289 351.577C325.359 349.294 325.85 347.11 326.763 345.027C327.692 342.931 329.039 341.104 330.804 339.547C331.851 338.623 332.992 337.854 334.226 337.237C335.476 336.607 336.781 336.15 338.142 335.867C339.505 335.554 340.893 335.427 342.307 335.486C343.735 335.531 345.151 335.783 346.555 336.24Z" fill="white"/>
<path d="M377.101 341.028L371.936 347.896L334.549 319.776L339.715 312.908L363.291 330.641L358.049 310.783L363.947 302.941L368.417 320.185L390.645 323.022L384.747 330.864L370.955 328.976L373.68 338.455L377.101 341.028Z" fill="white"/>
<path d="M403.67 297.235L395.334 314.864L387.65 311.23L395.986 293.602C396.235 293.074 396.26 292.533 396.062 291.978C395.863 291.424 395.5 291.022 394.973 290.772C394.427 290.514 393.98 290.533 393.632 290.83C393.285 291.126 392.986 291.538 392.737 292.065L388.943 300.089C388.311 301.426 387.464 302.558 386.404 303.486C385.343 304.413 384.175 305.105 382.899 305.561C381.604 306.009 380.252 306.211 378.844 306.168C377.445 306.105 376.077 305.758 374.739 305.126C373.402 304.493 372.265 303.656 371.329 302.615C370.402 301.554 369.71 300.386 369.253 299.11C368.797 297.834 368.599 296.496 368.662 295.097C368.706 293.688 369.043 292.316 369.676 290.979L377.063 275.356L384.747 278.989L377.36 294.612C377.111 295.139 377.085 295.68 377.284 296.235C377.482 296.79 377.845 297.192 378.373 297.441C378.919 297.7 379.479 297.734 380.052 297.544C380.607 297.346 381.009 296.983 381.259 296.455L385.052 288.432C385.676 287.114 386.49 285.978 387.494 285.024C388.479 284.061 389.572 283.333 390.773 282.841C391.973 282.348 393.25 282.111 394.601 282.128C395.953 282.144 397.288 282.465 398.606 283.088C399.943 283.72 401.076 284.567 402.003 285.627C402.911 286.679 403.603 287.847 404.079 289.132C404.536 290.408 404.742 291.75 404.699 293.159C404.636 294.558 404.293 295.917 403.67 297.235Z" fill="white"/>
<path d="M414.031 268.266L412.001 276.617L366.544 265.565L368.574 257.215L397.239 264.184L384.575 248.016L386.893 238.481L397.815 252.553L419.354 246.373L417.036 255.908L403.621 259.625L409.871 267.255L414.031 268.266Z" fill="white"/>
<path d="M412.764 222.308C412.88 221.979 412.964 221.648 413.018 221.316C413.05 220.984 413.072 220.651 413.084 220.318C413.114 219.485 413.027 218.68 412.826 217.901C412.624 217.123 412.326 216.393 411.934 215.712C411.521 215.01 411.021 214.387 410.436 213.846C409.83 213.282 409.159 212.821 408.421 212.461L414.919 206.437C416.015 207.268 416.993 208.219 417.851 209.292C418.711 210.344 419.431 211.484 420.013 212.714C420.596 213.923 421.02 215.199 421.285 216.543C421.572 217.866 421.691 219.225 421.641 220.62C421.558 222.973 421.043 225.175 420.095 227.226C419.147 229.256 417.866 231.025 416.249 232.531C414.633 234.017 412.737 235.169 410.561 235.989C408.364 236.808 405.974 237.171 403.393 237.08C400.749 236.987 398.349 236.454 396.195 235.481C394.04 234.509 392.22 233.225 390.733 231.63C389.248 230.014 388.115 228.16 387.334 226.069C386.554 223.957 386.205 221.724 386.288 219.372C386.338 217.977 386.552 216.619 386.933 215.298C387.313 213.977 387.836 212.735 388.503 211.57C389.17 210.384 389.98 209.287 390.933 208.279C391.865 207.269 392.907 206.389 394.059 205.637L412.764 222.308ZM395.335 217.315C395.176 217.705 395.068 218.097 395.012 218.492C394.958 218.865 394.923 219.26 394.908 219.676C394.867 220.842 395.046 221.953 395.447 223.01C395.827 224.045 396.399 224.961 397.163 225.76C397.928 226.537 398.865 227.164 399.974 227.641C401.062 228.117 402.303 228.38 403.698 228.429C404.011 228.44 404.365 228.442 404.761 228.436C405.158 228.408 405.566 228.37 405.985 228.322C406.383 228.253 406.772 228.173 407.15 228.082C407.529 227.991 407.867 227.868 408.164 227.711L395.335 217.315Z" fill="white"/>
<path d="M402.079 163.969C404.067 163.606 405.984 163.721 407.829 164.316C409.674 164.911 411.356 165.885 412.874 167.238C414.368 168.575 415.644 170.226 416.702 172.193C417.781 174.156 418.538 176.326 418.972 178.704C419.406 181.081 419.466 183.378 419.151 185.596C418.857 187.81 418.25 189.817 417.329 191.616C416.384 193.398 415.153 194.893 413.638 196.102C412.122 197.311 410.37 198.097 408.382 198.46C407.235 198.67 406.09 198.72 404.947 198.612C403.784 198.506 402.669 198.255 401.601 197.857C400.529 197.439 399.519 196.893 398.57 196.219C397.6 195.549 396.735 194.754 395.974 193.834C395.536 194.571 395.006 195.261 394.382 195.904C393.755 196.527 393.075 197.096 392.343 197.611C391.608 198.105 390.837 198.522 390.03 198.86C389.203 199.201 388.369 199.449 387.529 199.603C385.808 199.917 384.13 199.832 382.495 199.347C380.836 198.845 379.321 198.032 377.951 196.905C376.56 195.783 375.373 194.39 374.392 192.727C373.41 191.064 372.736 189.228 372.369 187.22C371.998 185.191 371.978 183.225 372.308 181.322C372.638 179.42 373.255 177.697 374.159 176.155C375.039 174.597 376.168 173.3 377.546 172.264C378.9 171.212 380.437 170.529 382.159 170.214C382.999 170.061 383.868 170.008 384.766 170.055C385.64 170.086 386.519 170.201 387.402 170.4C388.265 170.602 389.102 170.894 389.913 171.275C390.72 171.636 391.469 172.081 392.159 172.612C392.549 171.503 393.069 170.465 393.719 169.5C394.368 168.534 395.122 167.676 395.98 166.926C396.839 166.176 397.783 165.548 398.813 165.042C399.843 164.537 400.932 164.179 402.079 163.969ZM384.69 178.678C383.973 178.809 383.337 179.095 382.782 179.535C382.203 179.959 381.728 180.49 381.358 181.13C380.984 181.749 380.731 182.451 380.599 183.238C380.468 184.024 380.477 184.828 380.627 185.647C380.78 186.488 381.058 187.252 381.459 187.941C381.86 188.63 382.347 189.209 382.92 189.676C383.488 190.122 384.12 190.452 384.816 190.664C385.487 190.859 386.181 190.891 386.898 190.759C387.615 190.628 388.253 190.353 388.812 189.933C389.367 189.493 389.821 188.965 390.174 188.35C390.524 187.714 390.765 187.003 390.896 186.217C391.028 185.43 391.017 184.617 390.864 183.777C390.714 182.957 390.438 182.202 390.037 181.513C389.636 180.824 389.161 180.254 388.613 179.804C388.061 179.333 387.449 179 386.778 178.805C386.104 178.589 385.408 178.547 384.69 178.678ZM403.434 172.775C402.451 172.955 401.58 173.347 400.822 173.951C400.04 174.539 399.402 175.28 398.909 176.175C398.413 177.05 398.075 178.043 397.897 179.156C397.716 180.248 397.732 181.378 397.945 182.546C398.159 183.714 398.543 184.777 399.1 185.734C399.656 186.691 400.323 187.501 401.1 188.164C401.874 188.806 402.733 189.274 403.676 189.568C404.595 189.845 405.546 189.893 406.53 189.713C407.513 189.534 408.376 189.154 409.117 188.573C409.854 187.973 410.451 187.239 410.907 186.372C411.359 185.485 411.665 184.497 411.826 183.408C411.967 182.324 411.931 181.197 411.717 180.029C411.504 178.861 411.139 177.795 410.624 176.83C410.085 175.848 409.449 175.033 408.716 174.383C407.979 173.713 407.162 173.238 406.263 172.957C405.361 172.656 404.418 172.595 403.434 172.775Z" fill="white"/>
<path d="M398.003 140.49C397.97 140.142 397.908 139.806 397.818 139.483C397.708 139.167 397.589 138.856 397.46 138.548C397.138 137.78 396.723 137.084 396.213 136.462C395.704 135.84 395.129 135.301 394.487 134.848C393.817 134.383 393.104 134.027 392.345 133.78C391.559 133.522 390.756 133.384 389.936 133.366L393.313 125.174C394.657 125.47 395.943 125.925 397.172 126.539C398.393 127.135 399.525 127.869 400.568 128.742C401.604 129.595 402.523 130.577 403.327 131.686C404.141 132.767 404.818 133.952 405.358 135.239C406.267 137.411 406.721 139.626 406.72 141.886C406.71 144.126 406.286 146.269 405.449 148.314C404.603 150.339 403.364 152.18 401.731 153.836C400.079 155.499 398.062 156.83 395.679 157.828C393.239 158.851 390.837 159.372 388.473 159.391C386.11 159.41 383.919 159.007 381.901 158.181C379.875 157.335 378.07 156.127 376.485 154.554C374.892 152.963 373.641 151.082 372.731 148.91C372.192 147.623 371.818 146.3 371.61 144.942C371.402 143.583 371.357 142.235 371.475 140.899C371.584 139.543 371.86 138.207 372.303 136.892C372.727 135.585 373.305 134.349 374.036 133.184L398.003 140.49ZM380.085 143.254C380.104 143.675 380.17 144.077 380.285 144.458C380.391 144.82 380.525 145.193 380.686 145.577C381.137 146.653 381.765 147.587 382.571 148.379C383.35 149.159 384.254 149.752 385.282 150.157C386.302 150.543 387.415 150.72 388.622 150.689C389.809 150.666 391.047 150.384 392.334 149.845C392.622 149.724 392.945 149.577 393.302 149.405C393.651 149.214 394.005 149.009 394.366 148.79C394.698 148.56 395.018 148.325 395.323 148.084C395.629 147.843 395.884 147.589 396.089 147.323L380.085 143.254Z" fill="white"/>
<path d="M389.043 105.809L393.714 112.948L365.708 131.273L364.579 129.547L366.36 125.021C364.561 124.554 362.904 123.772 361.387 122.672C359.854 121.584 358.574 120.256 357.547 118.687L353.424 112.385L360.536 107.731L364.66 114.033C365.151 114.783 365.752 115.397 366.464 115.877C367.177 116.357 367.937 116.682 368.744 116.85C369.552 117.019 370.378 117.026 371.223 116.872C372.068 116.717 372.865 116.395 373.615 115.904L389.043 105.809Z" fill="white"/>
<path d="M365.299 80.1685C365.864 79.6749 366.486 79.3107 367.166 79.0759C367.831 78.8548 368.501 78.767 369.177 78.8124C369.853 78.8578 370.506 79.0346 371.135 79.3426C371.779 79.6369 372.349 80.0664 372.842 80.6311C373.322 81.1801 373.671 81.8016 373.891 82.4955C374.112 83.16 374.206 83.8381 374.175 84.5299C374.129 85.2061 373.959 85.8664 373.665 86.5111C373.341 87.1537 372.897 87.7218 372.332 88.2154C371.783 88.6953 371.177 89.0458 370.512 89.2669C369.834 89.4723 369.157 89.5523 368.481 89.5069C367.791 89.4457 367.131 89.2612 366.503 88.9531C365.844 88.6431 365.275 88.2136 364.795 87.6646C364.302 87.0999 363.952 86.4785 363.747 85.8003C363.526 85.1358 363.438 84.4654 363.483 83.7893C363.529 83.1132 363.705 82.4607 364.013 81.8317C364.321 81.2028 364.75 80.6484 365.299 80.1685Z" fill="white"/>
<path d="M334.011 48.0746L335.611 49.3759L335.283 55.0299C336.373 54.9768 337.478 54.9889 338.597 55.0661C339.686 55.1464 340.77 55.3162 341.848 55.5753C342.913 55.8507 343.943 56.2185 344.938 56.6787C345.917 57.1258 346.827 57.6911 347.668 58.3746C349.494 59.8599 350.939 61.5992 352.004 63.5925C353.039 65.5888 353.669 67.686 353.896 69.884C354.093 72.0851 353.862 74.3007 353.203 76.5307C352.531 78.7769 351.394 80.886 349.79 82.8579C348.199 84.8137 346.373 86.3495 344.311 87.4653C342.249 88.5811 340.121 89.2669 337.926 89.5226C335.714 89.7652 333.526 89.5834 331.361 88.9771C329.179 88.3577 327.175 87.3054 325.349 85.8201C324.767 85.3469 324.208 84.812 323.673 84.2156C323.121 83.606 322.647 82.9514 322.249 82.2519C321.822 81.5555 321.494 80.8191 321.266 80.0429C321.038 79.2667 320.956 78.4754 321.021 77.669L311.163 89.7916L304.496 84.3696L334.011 48.0746ZM329.933 66.7102C329.197 67.6154 328.665 68.6328 328.337 69.7624C327.98 70.8951 327.838 72.0279 327.91 73.1608C327.969 74.3098 328.245 75.4069 328.738 76.4521C329.201 77.5002 329.885 78.3923 330.79 79.1284C331.696 79.8645 332.684 80.3995 333.755 80.7334C334.81 81.0542 335.886 81.1507 336.983 81.0228C338.052 80.898 339.11 80.5372 340.159 79.9404C341.209 79.3436 342.18 78.4956 343.074 77.3965C343.85 76.4429 344.416 75.3997 344.773 74.267C345.13 73.1343 345.281 72.0081 345.225 70.8884C345.152 69.7555 344.872 68.6811 344.382 67.6653C343.876 66.6363 343.17 65.7538 342.265 65.0177C341.36 64.2817 340.354 63.7856 339.246 63.5294C338.11 63.2763 336.979 63.2298 335.855 63.39C334.719 63.5664 333.639 63.9368 332.616 64.5013C331.563 65.0687 330.669 65.8051 329.933 66.7102Z" fill="white"/>
<path d="M307.071 42.2739C306.821 42.0303 306.557 41.8145 306.278 41.6266C305.991 41.4572 305.698 41.2972 305.401 41.1465C304.657 40.7696 303.89 40.5091 303.099 40.3649C302.308 40.2207 301.521 40.1836 300.738 40.2538C299.927 40.3331 299.152 40.5244 298.415 40.8277C297.649 41.1402 296.948 41.5555 296.311 42.0737L293.577 33.645C294.792 32.9996 296.067 32.513 297.401 32.185C298.717 31.8477 300.055 31.6735 301.415 31.6626C302.757 31.6421 304.093 31.7941 305.423 32.1183C306.745 32.4146 308.028 32.8783 309.273 33.5096C311.373 34.5742 313.154 35.9678 314.616 37.6904C316.06 39.4035 317.125 41.3102 317.812 43.4104C318.481 45.5012 318.729 47.7061 318.558 50.0251C318.377 52.3626 317.702 54.6835 316.534 56.9875C315.338 59.3474 313.845 61.3002 312.057 62.8461C310.269 64.392 308.338 65.5039 306.266 66.1817C304.175 66.8501 302.017 67.0989 299.791 66.928C297.547 66.7476 295.375 66.1252 293.275 65.0605C292.03 64.4293 290.888 63.6635 289.85 62.7633C288.812 61.863 287.904 60.8656 287.128 59.7711C286.333 58.6673 285.678 57.471 285.163 56.1823C284.639 54.9123 284.279 53.5965 284.081 52.2351L307.071 42.2739ZM295.213 55.9872C295.5 56.2963 295.811 56.559 296.145 56.7751C296.46 56.9819 296.804 57.1795 297.176 57.3679C298.216 57.8955 299.3 58.1997 300.427 58.2806C301.526 58.3706 302.598 58.2369 303.643 57.8794C304.67 57.5125 305.633 56.9263 306.532 56.1207C307.422 55.3338 308.182 54.3178 308.814 53.0729C308.955 52.7942 309.106 52.4736 309.266 52.1111C309.408 51.7392 309.545 51.3533 309.678 50.9535C309.783 50.5627 309.873 50.1766 309.95 49.795C310.027 49.4134 310.057 49.0549 310.04 48.7194L295.213 55.9872Z" fill="white"/>
<path d="M276.712 21.2876L280.213 56.9312L270.836 54.3756L269.27 32.3124L256.756 50.5382L247.349 47.9744L268.451 19.0361L276.712 21.2876Z" fill="white"/>
</svg>
